<svg xmlns="http://www.w3.org/2000/svg" width="1024" height="1024" viewBox="0 0 1024 1024"><defs><radialGradient id="vapp-bg" cx="50%" cy="38%" r="75%"><stop offset="0" stop-color="#330b5f"/><stop offset=".62" stop-color="#1a0d2a"/><stop offset="1" stop-color="#0b0910"/></radialGradient><radialGradient id="vapp-glow" cx="50%" cy="12%" r="45%"><stop offset="0" stop-color="#ffd750" stop-opacity=".18"/><stop offset="1" stop-color="#ffd750" stop-opacity="0"/></radialGradient></defs><rect width="1024" height="1024" fill="url(#vapp-bg)" rx="228"/><rect width="1024" height="1024" fill="url(#vapp-glow)" rx="228"/><rect width="1004" height="1004" x="10" y="10" fill="none" stroke="#e8c887" stroke-opacity=".35" stroke-width="6" rx="218"/><g transform="matrix(7.7 0 0 7.7 127 119.6)"><defs><linearGradient id="vapp-mk-violet" x1="0" x2="0" y1="0" y2="1"><stop offset="0" stop-color="#7e0e90"/><stop offset="1" stop-color="#330b5f"/></linearGradient><linearGradient id="vapp-mk-arc" x1="0" x2="0" y1="0" y2="1"><stop offset="0" stop-color="#88a0a8"/><stop offset=".28" stop-color="#7e0e90"/><stop offset="1" stop-color="#330b5f"/></linearGradient><linearGradient id="vapp-mk-v" x1="0" x2="0" y1="0" y2="1"><stop offset="0" stop-color="#fff"/><stop offset="1" stop-color="#c9d3d6"/></linearGradient><linearGradient id="vapp-mk-gold" x1="0" x2="1" y1="0" y2="1"><stop offset="0" stop-color="#ffd750"/><stop offset="1" stop-color="#e8c887"/></linearGradient></defs><path fill="url(#vapp-mk-arc)" stroke="#e8c887" stroke-linejoin="round" stroke-opacity=".55" stroke-width=".9" d="m31.81 15.2-1.9.99-1.85 1.08-1.79 1.18-1.72 1.27-1.66 1.36-1.59 1.44-1.51 1.52-1.43 1.6-1.34 1.67-1.26 1.73-1.16 1.8-1.07 1.86-.97 1.91-.88 1.95-.77 2-.67 2.04-.56 2.07-.45 2.09-.35 2.11L8.65 49l-.13 2.14-.01 2.14.09 2.14.21 2.14.32 2.12.42 2.1.53 2.07.64 2.05.75 2.01.84 1.96.95 1.93 1.04 1.87 1.14 1.81 1.24 1.75L18 78.92l1.4 1.62 1.49 1.54 1.57 1.46 1.63 1.38 1.71 1.3 1.77 1.2 1.84 1.11 1.88 1.02 1.94.91 1.98.82 2.02.71 2.06.6 2.08.5.13-.58-2.06-.5-2.02-.59-1.99-.7-1.73-1.31-1.53-1.59-1.48-1.53-1.42-1.52-1.33-1.53-1.26-1.56 1.79 1.35 6.63-6.35-9.59 3.42-1.1-1.6-1.02-1.61-.95-1.64-.87-1.65-.79-1.67-.73-1.67-.65-1.69-.58-1.7.44 2.1 9.79-3.51-10.74-.29-.45-1.71-.39-1.71-.31-1.72-.26-1.72-.19-1.72-.14-1.73-.06-1.73-.01-1.73.05-1.73.12-1.73.18-1.73.24-1.74.31-1.73.37-1.73.44-1.73.51-1.73.58-1.72.65-1.71.73-1.71.8-1.7.88-1.68.95-1.67 1.04-1.66 1.11-1.64 1.2-1.62 1.27-1.61 1.35-1.6 1.41-1.63 1.38-1.86Z"/><path fill="url(#vapp-mk-arc)" stroke="#e8c887" stroke-linejoin="round" stroke-opacity=".55" stroke-width=".9" d="m68.19 15.2 1.9.99 1.85 1.08 1.79 1.18 1.72 1.27 1.66 1.36 1.59 1.44 1.51 1.52 1.43 1.6 1.34 1.67 1.26 1.73 1.16 1.8 1.07 1.86.97 1.91.88 1.95.77 2 .67 2.04.56 2.07.45 2.09.35 2.11.23 2.13.13 2.14.01 2.14-.09 2.14-.21 2.14-.32 2.12-.42 2.1-.53 2.07-.64 2.05-.75 2.01-.84 1.96-.95 1.93-1.04 1.87-1.14 1.81-1.24 1.75L82 78.92l-1.4 1.62-1.49 1.54-1.57 1.46-1.63 1.38-1.71 1.3-1.77 1.2-1.84 1.11-1.88 1.02-1.94.91-1.98.82-2.02.71-2.06.6-2.08.5-.13-.58 2.06-.5 2.02-.59 1.99-.7 1.73-1.31 1.53-1.59 1.48-1.53 1.42-1.52 1.33-1.53 1.26-1.56-1.79 1.35-6.63-6.35 9.59 3.42 1.1-1.6 1.02-1.61.95-1.64.87-1.65.79-1.67.73-1.67.65-1.69.58-1.7-.44 2.1-9.79-3.51 10.74-.29.45-1.71.39-1.71.31-1.72.26-1.72.19-1.72.14-1.73.06-1.73.01-1.73-.05-1.73-.12-1.73-.18-1.73-.24-1.74-.31-1.73-.37-1.73-.44-1.73-.51-1.73-.58-1.72-.65-1.71-.73-1.71-.8-1.7-.88-1.68-.95-1.67-1.04-1.66-1.11-1.64-1.2-1.62-1.27-1.61-1.35-1.6-1.41-1.63-1.38-1.86Z"/><path fill="none" stroke="#e8c887" stroke-linejoin="round" stroke-opacity=".75" stroke-width="1.44" d="M45.2 39c3.07-4 3.84-11.5 4.8-19.5.96 8 1.73 15.5 4.8 19.5Z"/><path fill="none" stroke="#e8c887" stroke-linejoin="round" stroke-opacity=".75" stroke-width="1.44" d="M45.2 38.6h9.6V72h-9.6Zm-9 6.9c2.05-4 2.56-12 3.2-20 .64 8 1.15 16 3.2 20Z"/><path fill="none" stroke="#e8c887" stroke-linejoin="round" stroke-opacity=".75" stroke-width="1.44" d="M36.4 45h6v15h-6Z"/><path fill="none" stroke="#e8c887" stroke-linejoin="round" stroke-opacity=".75" stroke-width="1.44" d="M35.4 48.4v-5.2H37v2.2h1.6v-2.2h1.6v2.2h1.6v-2.2h1.6v5.2Zm22-2.9c2.05-4 2.56-12 3.2-20 .64 8 1.15 16 3.2 20Z"/><path fill="none" stroke="#e8c887" stroke-linejoin="round" stroke-opacity=".75" stroke-width="1.44" d="M57.6 45h6v15h-6Z"/><path fill="none" stroke="#e8c887" stroke-linejoin="round" stroke-opacity=".75" stroke-width="1.44" d="M56.6 48.4v-5.2h1.6v2.2h1.6v-2.2h1.6v2.2H63v-2.2h1.6v5.2Zm-22.1 9.1h31V72h-31Z"/><path fill="none" stroke="#e8c887" stroke-linejoin="round" stroke-opacity=".75" stroke-width="1.44" d="M34.5 60.6v-5.4h2.38v2.4h2.39v-2.4h2.38v2.4h2.39v-2.4h2.38v2.4h2.39v-2.4h2.38v2.4h2.39v-2.4h2.38v2.4h2.39v-2.4h2.38v2.4h2.39v-2.4h2.38v5.4Z"/><path fill="url(#vapp-mk-violet)" d="M45.2 39c3.07-4 3.84-11.5 4.8-19.5.96 8 1.73 15.5 4.8 19.5Z"/><path fill="url(#vapp-mk-violet)" d="M45.2 38.6h9.6V72h-9.6Z"/><path fill="url(#vapp-mk-violet)" d="M36.2 45.5c2.05-4 2.56-12 3.2-20 .64 8 1.15 16 3.2 20Z"/><path fill="url(#vapp-mk-violet)" d="M36.4 45h6v15h-6Z"/><path fill="url(#vapp-mk-violet)" d="M35.4 48.4v-5.2H37v2.2h1.6v-2.2h1.6v2.2h1.6v-2.2h1.6v5.2Z"/><path fill="url(#vapp-mk-violet)" d="M57.4 45.5c2.05-4 2.56-12 3.2-20 .64 8 1.15 16 3.2 20Z"/><path fill="url(#vapp-mk-violet)" d="M57.6 45h6v15h-6Z"/><path fill="url(#vapp-mk-violet)" d="M56.6 48.4v-5.2h1.6v2.2h1.6v-2.2h1.6v2.2H63v-2.2h1.6v5.2Z"/><path fill="url(#vapp-mk-violet)" d="M34.5 57.5h31V72h-31Z"/><path fill="url(#vapp-mk-violet)" d="M34.5 60.6v-5.4h2.38v2.4h2.39v-2.4h2.38v2.4h2.39v-2.4h2.38v2.4h2.39v-2.4h2.38v2.4h2.39v-2.4h2.38v2.4h2.39v-2.4h2.38v2.4h2.39v-2.4h2.38v5.4Z"/><path fill="#0b0910" d="M49 42.5a1 1 0 0 1 2 0V47h-2ZM38.5 49a.9.9 0 0 1 1.8 0v3.6h-1.8Zm21.2 0a.9.9 0 0 1 1.8 0v3.6h-1.8Z"/><path fill="#0b0910" stroke="#e8c887" stroke-width=".9" d="M45.9 72v-7.8a4.1 4.1 0 0 1 8.2 0V72Z"/><path stroke="#e8c887" stroke-linecap="round" stroke-width=".72" d="M48.1 70v-6.5M50 70v-7.5m1.9 7.5v-6.5"/><path fill="url(#vapp-mk-v)" stroke="#0b0910" stroke-linejoin="round" stroke-width="2.4" d="M14.5 31h19l-2.3 2 19.2 39 18.8-39-2.7-2h19l-3 2.2h-5L51.6 86.5H49L19.2 33.2H17Z" paint-order="stroke"/><path fill="url(#vapp-mk-gold)" d="M57.38 10.01A7.6 7.6 0 1 1 49.3.63a6.2 6.2 0 0 0 8.08 9.38"/><path fill="#ffd750" d="M24.6 53.7q.7 3.6 4.3 4.3-3.6.7-4.3 4.3-.7-3.6-4.3-4.3 3.6-.7 4.3-4.3m50.8 0q.7 3.6 4.3 4.3-3.6.7-4.3 4.3-.7-3.6-4.3-4.3 3.6-.7 4.3-4.3M50 17.1q.4 1.9 2.3 2.3-1.9.4-2.3 2.3-.4-1.9-2.3-2.3 1.9-.4 2.3-2.3"/></g></svg>