<svg xmlns="http://www.w3.org/2000/svg" width="48" height="48" viewBox="0 0 48 48"><defs><radialGradient id="vi-classes-bard-l-bg" cx="50%" cy="28%" r="80%"><stop offset="0" stop-color="#f6eede"/><stop offset="1" stop-color="#ece3d2"/></radialGradient><radialGradient id="vi-classes-bard-l-hi" cx="50%" cy="0%" r="70%"><stop offset="0" stop-color="#fff" stop-opacity=".7"/><stop offset="1" stop-color="#fff" stop-opacity="0"/></radialGradient></defs><path fill="url(#vi-classes-bard-l-bg)" d="M13 1.75h22L46.25 13v22L35 46.25H13L1.75 35V13Z"/><path fill="url(#vi-classes-bard-l-hi)" d="M13 1.75h22L46.25 13v22L35 46.25H13L1.75 35V13Z"/><path fill="none" stroke="#dcd0bc" stroke-width=".75" d="M14.1 4.5h19.8l9.6 9.6v19.8l-9.6 9.6H14.1l-9.6-9.6V14.1Z"/><path fill="none" stroke="#9a6a1c" stroke-linejoin="round" stroke-width="1.5" d="M13 1.75h22L46.25 13v22L35 46.25H13L1.75 35V13Z"/><g fill="none" stroke="#9a6a1c" stroke-linecap="round" stroke-linejoin="round" stroke-width="1.9" transform="translate(4.56 4.56)scale(1.62)"><path d="M5.4 12.6c2-2 5-2.5 7.5-1.2l.3.3c1.3 2.5.8 5.5-1.2 7.5a4.5 4.5 0 0 1-6.6-6.6m6.9-.9L19 5"/><path fill="#9a6a1c" stroke="none" d="m17.6 3.6 1.2-1.1 2.7 2.7-1.1 1.2z"/><circle cx="8.7" cy="15.3" r="1.35" fill="#9a6a1c" stroke="none"/><path stroke-width="1.3" d="m6.4 18.4 1.2-1.2"/></g></svg>