<svg xmlns="http://www.w3.org/2000/svg" width="48" height="48" viewBox="0 0 48 48"><defs><radialGradient id="vi-peoples-varkyn-l-bg" cx="50%" cy="28%" r="80%"><stop offset="0" stop-color="#f6eede"/><stop offset="1" stop-color="#ece3d2"/></radialGradient><radialGradient id="vi-peoples-varkyn-l-hi" cx="50%" cy="0%" r="70%"><stop offset="0" stop-color="#fff" stop-opacity=".7"/><stop offset="1" stop-color="#fff" stop-opacity="0"/></radialGradient></defs><circle cx="24" cy="24" r="22.25" fill="url(#vi-peoples-varkyn-l-bg)"/><circle cx="24" cy="24" r="22.25" fill="url(#vi-peoples-varkyn-l-hi)"/><circle cx="24" cy="24" r="19.6" fill="none" stroke="#dcd0bc" stroke-width=".75"/><circle cx="24" cy="24" r="22.25" fill="none" stroke="#9a6a1c" stroke-linejoin="round" stroke-width="1.5"/><g fill="none" stroke="#9a6a1c" stroke-linecap="round" stroke-linejoin="round" stroke-width="1.9"><path stroke-width="3.04" d="m12 9.28 6.24 7.36h11.52L36 9.28l.96 12.16-2.56 2.24 1.12 3.52L24 38.72 12.48 27.2l1.12-3.52-2.56-2.24z"/><path stroke-width="2.56" d="m16.64 22.56 4.16 1.6m10.56-1.6-4.16 1.6"/><path stroke-width="2.08" d="m20.8 26.56 3.2 2.88 3.2-2.88"/><path fill="#9a6a1c" stroke="none" d="M21.12 31.04h5.76L24 34.56z"/></g></svg>