<svg xmlns="http://www.w3.org/2000/svg" width="48" height="48" viewBox="0 0 48 48"><defs><radialGradient id="vi-halls-bell-hall-ruins-d-bg" cx="50%" cy="28%" r="80%"><stop offset="0" stop-color="#330b5f"/><stop offset="1" stop-color="#0b0910"/></radialGradient><radialGradient id="vi-halls-bell-hall-ruins-d-hi" cx="50%" cy="0%" r="70%"><stop offset="0" stop-color="#7e0e90" stop-opacity=".38"/><stop offset="1" stop-color="#7e0e90" stop-opacity="0"/></radialGradient></defs><path fill="url(#vi-halls-bell-hall-ruins-d-bg)" d="M4.75 46.25h38.5V21a19.25 19.25 0 0 0-38.5 0Z"/><path fill="url(#vi-halls-bell-hall-ruins-d-hi)" d="M4.75 46.25h38.5V21a19.25 19.25 0 0 0-38.5 0Z"/><path fill="none" stroke="#88a0a8" stroke-opacity=".5" stroke-width=".75" d="M7.5 43.5h33V21a16.5 16.5 0 0 0-33 0Z"/><path fill="none" stroke="#e8c887" stroke-linejoin="round" stroke-width="1.5" d="M4.75 46.25h38.5V21a19.25 19.25 0 0 0-38.5 0Z"/><g fill="none" stroke="#e8c887" stroke-linecap="round" stroke-linejoin="round" stroke-width="1.9" transform="translate(5.4 7.7)scale(1.55)"><path d="M6.3 17v-6a5.7 5.7 0 0 1 11.4 0v6l1.7 2.3h-5.2l-1-1.2-1.2 1.2H4.6z"/><path d="M10.8 3.6h2.4v1.8"/><path stroke-width="1.35" d="m12.6 5.4-1.4 3.2 2 2.2-1.6 3.1 1.2 2.6"/><circle cx="12" cy="21" r="1.1" fill="#e8c887" stroke="none"/></g></svg>