<svg xmlns="http://www.w3.org/2000/svg" width="48" height="48" viewBox="0 0 48 48"><defs><radialGradient id="vi-halls-the-arcane-academy-d-bg" cx="50%" cy="28%" r="80%"><stop offset="0" stop-color="#330b5f"/><stop offset="1" stop-color="#0b0910"/></radialGradient><radialGradient id="vi-halls-the-arcane-academy-d-hi" cx="50%" cy="0%" r="70%"><stop offset="0" stop-color="#7e0e90" stop-opacity=".38"/><stop offset="1" stop-color="#7e0e90" stop-opacity="0"/></radialGradient></defs><path fill="url(#vi-halls-the-arcane-academy-d-bg)" d="M4.75 46.25h38.5V21a19.25 19.25 0 0 0-38.5 0Z"/><path fill="url(#vi-halls-the-arcane-academy-d-hi)" d="M4.75 46.25h38.5V21a19.25 19.25 0 0 0-38.5 0Z"/><path fill="none" stroke="#88a0a8" stroke-opacity=".5" stroke-width=".75" d="M7.5 43.5h33V21a16.5 16.5 0 0 0-33 0Z"/><path fill="none" stroke="#e8c887" stroke-linejoin="round" stroke-width="1.5" d="M4.75 46.25h38.5V21a19.25 19.25 0 0 0-38.5 0Z"/><g fill="none" stroke="#e8c887" stroke-linecap="round" stroke-linejoin="round" stroke-width="1.9"><path stroke-width="2.94" d="M24 26.3c-3.41-2.17-8.06-3.1-13.17-3.1v14.88c5.11 0 9.76.93 13.17 3.1 3.41-2.17 8.06-3.1 13.18-3.1V23.2c-5.12 0-9.77.93-13.18 3.1m0 0v14.57"/><path fill="#ffd750" stroke="none" d="M24 11.42q.77 4.19 4.96 4.96-4.19.78-4.96 4.96-.77-4.18-4.96-4.96 4.19-.77 4.96-4.96"/></g></svg>