<svg xmlns="http://www.w3.org/2000/svg" width="48" height="48" viewBox="0 0 48 48"><defs><radialGradient id="vi-halls-the-monastery-of-the-fist-l-bg" cx="50%" cy="28%" r="80%"><stop offset="0" stop-color="#f6eede"/><stop offset="1" stop-color="#ece3d2"/></radialGradient><radialGradient id="vi-halls-the-monastery-of-the-fist-l-hi" cx="50%" cy="0%" r="70%"><stop offset="0" stop-color="#fff" stop-opacity=".7"/><stop offset="1" stop-color="#fff" stop-opacity="0"/></radialGradient></defs><path fill="url(#vi-halls-the-monastery-of-the-fist-l-bg)" d="M4.75 46.25h38.5V21a19.25 19.25 0 0 0-38.5 0Z"/><path fill="url(#vi-halls-the-monastery-of-the-fist-l-hi)" d="M4.75 46.25h38.5V21a19.25 19.25 0 0 0-38.5 0Z"/><path fill="none" stroke="#dcd0bc" stroke-width=".75" d="M7.5 43.5h33V21a16.5 16.5 0 0 0-33 0Z"/><path fill="none" stroke="#9a6a1c" stroke-linejoin="round" stroke-width="1.5" d="M4.75 46.25h38.5V21a19.25 19.25 0 0 0-38.5 0Z"/><g fill="none" stroke="#9a6a1c" stroke-linecap="round" stroke-linejoin="round" stroke-width="1.9" transform="translate(5.4 7.7)scale(1.55)"><path d="M2.6 4.2h18.8m-16.6 0v17m14.4-17v17m-15.8 0h2.8m11.6 0h2.8"/><path stroke-width="1.2" d="M9.6 4.2v3.4m4.8-3.4v3.4"/><circle cx="12" cy="12.4" r="4.6"/><circle cx="12" cy="12.4" r="1.7" fill="#7e0e90" stroke="none"/></g></svg>